<mxfile host="app.diagrams.net" modified="2021-02-01T06:44:15.250Z" agent="5.0 (Windows)" etag="-JBGVsC1-JMlY3zahwwB" version="14.2.9" type="github">
  <diagram id="ZMjFlFDBcObQMVyW7c8Y" name="Page-1">
    <mxGraphModel dx="1038" dy="547" grid="1" gridSize="10" guides="1" tooltips="1" connect="1" arrows="1" fold="1" page="1" pageScale="1" pageWidth="1169" pageHeight="827" math="0" shadow="0">
      <root>
        <mxCell id="0" />
        <mxCell id="1" parent="0" />
        <mxCell id="whAv_r-oKJ33wHacgo0v-1" value="Laboratory service provision" style="swimlane;" parent="1" vertex="1">
          <mxGeometry x="10" y="10" width="960" height="750" as="geometry" />
        </mxCell>
        <mxCell id="whAv_r-oKJ33wHacgo0v-2" value="Start" style="rounded=1;whiteSpace=wrap;html=1;" parent="whAv_r-oKJ33wHacgo0v-1" vertex="1">
          <mxGeometry x="50" y="40" width="110" height="60" as="geometry" />
        </mxCell>
        <mxCell id="whAv_r-oKJ33wHacgo0v-5" value="Once the PIPs and funds have approved Lab (SDDR&amp;amp;D, Lab Head, Head Bioscience) gets notification and summary of requirements for preparation" style="rounded=0;whiteSpace=wrap;html=1;" parent="whAv_r-oKJ33wHacgo0v-1" vertex="1">
          <mxGeometry x="20" y="170" width="170" height="100" as="geometry" />
        </mxCell>
        <mxCell id="whAv_r-oKJ33wHacgo0v-4" value="" style="edgeStyle=orthogonalEdgeStyle;rounded=0;orthogonalLoop=1;jettySize=auto;html=1;" parent="whAv_r-oKJ33wHacgo0v-1" source="whAv_r-oKJ33wHacgo0v-2" target="whAv_r-oKJ33wHacgo0v-5" edge="1">
          <mxGeometry relative="1" as="geometry">
            <mxPoint x="105" y="180" as="targetPoint" />
          </mxGeometry>
        </mxCell>
        <mxCell id="whAv_r-oKJ33wHacgo0v-6" value="Laboratory Coordinator and Heads glass house and field site undertake inventory of what the scientists needs in the lab, glass house and field sites for experiment and Reagents and submit" style="whiteSpace=wrap;html=1;rounded=0;" parent="whAv_r-oKJ33wHacgo0v-1" vertex="1">
          <mxGeometry x="10" y="337" width="190" height="110" as="geometry" />
        </mxCell>
        <mxCell id="whAv_r-oKJ33wHacgo0v-7" value="" style="edgeStyle=orthogonalEdgeStyle;rounded=0;orthogonalLoop=1;jettySize=auto;html=1;" parent="whAv_r-oKJ33wHacgo0v-1" source="whAv_r-oKJ33wHacgo0v-5" target="whAv_r-oKJ33wHacgo0v-6" edge="1">
          <mxGeometry relative="1" as="geometry" />
        </mxCell>
        <mxCell id="whAv_r-oKJ33wHacgo0v-8" value="&lt;div&gt;requirements&lt;/div&gt;&lt;div&gt;available?&lt;br&gt;&lt;/div&gt;" style="rhombus;whiteSpace=wrap;html=1;rounded=0;" parent="whAv_r-oKJ33wHacgo0v-1" vertex="1">
          <mxGeometry x="57.5" y="500" width="95" height="80" as="geometry" />
        </mxCell>
        <mxCell id="whAv_r-oKJ33wHacgo0v-9" value="" style="edgeStyle=orthogonalEdgeStyle;rounded=0;orthogonalLoop=1;jettySize=auto;html=1;" parent="whAv_r-oKJ33wHacgo0v-1" source="whAv_r-oKJ33wHacgo0v-6" target="whAv_r-oKJ33wHacgo0v-8" edge="1">
          <mxGeometry relative="1" as="geometry" />
        </mxCell>
        <mxCell id="whAv_r-oKJ33wHacgo0v-12" value="yes" style="text;html=1;strokeColor=none;fillColor=none;align=center;verticalAlign=middle;whiteSpace=wrap;rounded=0;" parent="whAv_r-oKJ33wHacgo0v-1" vertex="1">
          <mxGeometry x="98.5" y="597" width="40" height="20" as="geometry" />
        </mxCell>
        <mxCell id="whAv_r-oKJ33wHacgo0v-33" value="no" style="text;html=1;strokeColor=none;fillColor=none;align=center;verticalAlign=middle;whiteSpace=wrap;rounded=0;" parent="whAv_r-oKJ33wHacgo0v-1" vertex="1">
          <mxGeometry x="170" y="519" width="40" height="20" as="geometry" />
        </mxCell>
        <mxCell id="OGAYWdb1rIvEOjWdBlm0-1" value="RD, DRD, Lab Head confirm funds availability" style="rounded=0;whiteSpace=wrap;html=1;" vertex="1" parent="whAv_r-oKJ33wHacgo0v-1">
          <mxGeometry x="230" y="510" width="120" height="60" as="geometry" />
        </mxCell>
        <mxCell id="whAv_r-oKJ33wHacgo0v-14" value="" style="edgeStyle=orthogonalEdgeStyle;rounded=0;orthogonalLoop=1;jettySize=auto;html=1;" parent="whAv_r-oKJ33wHacgo0v-1" source="whAv_r-oKJ33wHacgo0v-8" target="OGAYWdb1rIvEOjWdBlm0-1" edge="1">
          <mxGeometry relative="1" as="geometry">
            <mxPoint x="240" y="540" as="targetPoint" />
          </mxGeometry>
        </mxCell>
        <mxCell id="whAv_r-oKJ33wHacgo0v-10" value="LH, LM communicates to the customer on services that can be provided in tandem with KEFRI laboratory capacity" style="whiteSpace=wrap;html=1;rounded=0;" parent="1" vertex="1">
          <mxGeometry x="30" y="660" width="170" height="80" as="geometry" />
        </mxCell>
        <mxCell id="whAv_r-oKJ33wHacgo0v-11" value="" style="edgeStyle=orthogonalEdgeStyle;rounded=0;orthogonalLoop=1;jettySize=auto;html=1;" parent="1" source="whAv_r-oKJ33wHacgo0v-8" target="whAv_r-oKJ33wHacgo0v-10" edge="1">
          <mxGeometry relative="1" as="geometry" />
        </mxCell>
      </root>
    </mxGraphModel>
  </diagram>
</mxfile>
